<svg width="22" height="18" viewBox="0 0 22 18" fill="none" xmlns="http://www.w3.org/2000/svg">
<path d="M18.8716 8.54577L18.1526 8.33247L18.8716 8.54577ZM17.8891 11.8579L18.6081 12.0712V12.0712L17.8891 11.8579ZM4.11094 11.8579L4.82997 11.6446L4.11094 11.8579ZM3.12841 8.54576L2.40938 8.75907L2.40938 8.75907L3.12841 8.54576ZM7.98521 16.8049L8.1927 16.0841V16.0841L7.98521 16.8049ZM5.15544 14.6927L4.52349 15.0966L5.15544 14.6927ZM16.8446 14.6927L17.4765 15.0966H17.4765L16.8446 14.6927ZM14.0148 16.8049L13.8073 16.0841V16.0841L14.0148 16.8049ZM19.873 5.00001V4.25001H19.2841L19.1444 4.82204L19.873 5.00001ZM2.12703 5.00001V4.25001H1.17177L1.39845 5.17798L2.12703 5.00001ZM1 4.25001C0.585786 4.25001 0.25 4.5858 0.25 5.00001C0.25 5.41422 0.585786 5.75001 1 5.75001V4.25001ZM21 5.75001C21.4142 5.75001 21.75 5.41422 21.75 5.00001C21.75 4.5858 21.4142 4.25001 21 4.25001V5.75001ZM13.75 9.00001C13.75 8.5858 13.4142 8.25001 13 8.25001C12.5858 8.25001 12.25 8.5858 12.25 9.00001H13.75ZM12.25 13C12.25 13.4142 12.5858 13.75 13 13.75C13.4142 13.75 13.75 13.4142 13.75 13H12.25ZM14.5304 0.46967C14.2375 0.176777 13.7626 0.176777 13.4697 0.46967C13.1768 0.762563 13.1768 1.23744 13.4697 1.53033L14.5304 0.46967ZM8.77297 1.53035C9.06586 1.23745 9.06586 0.762578 8.77297 0.469685C8.48008 0.176792 8.0052 0.176792 7.71231 0.469685L8.77297 1.53035ZM9.75 9.00001C9.75 8.5858 9.41421 8.25001 9 8.25001C8.58579 8.25001 8.25 8.5858 8.25 9.00001H9.75ZM8.25 13C8.25 13.4142 8.58579 13.75 9 13.75C9.41421 13.75 9.75 13.4142 9.75 13H8.25ZM18.1526 8.33247L17.17 11.6446L18.6081 12.0712L19.5906 8.75907L18.1526 8.33247ZM4.82997 11.6446L3.84743 8.33246L2.40938 8.75907L3.39191 12.0712L4.82997 11.6446ZM11 16.25C9.39454 16.25 8.74417 16.2429 8.1927 16.0841L7.77772 17.5256C8.58199 17.7571 9.48956 17.75 11 17.75V16.25ZM3.39191 12.0712C3.82148 13.5192 4.07278 14.3914 4.52349 15.0966L5.7874 14.2888C5.47836 13.8052 5.28656 13.1837 4.82997 11.6446L3.39191 12.0712ZM8.1927 16.0841C7.19926 15.7981 6.34412 15.1598 5.7874 14.2888L4.52349 15.0966C5.2767 16.2751 6.43365 17.1386 7.77772 17.5256L8.1927 16.0841ZM17.17 11.6446C16.7134 13.1837 16.5216 13.8052 16.2126 14.2888L17.4765 15.0966C17.9272 14.3913 18.1785 13.5192 18.6081 12.0712L17.17 11.6446ZM11 17.75C12.5104 17.75 13.418 17.7571 14.2223 17.5256L13.8073 16.0841C13.2558 16.2429 12.6055 16.25 11 16.25V17.75ZM16.2126 14.2888C15.6559 15.1598 14.8007 15.7981 13.8073 16.0841L14.2223 17.5256C15.5663 17.1386 16.7233 16.2751 17.4765 15.0966L16.2126 14.2888ZM19.5906 8.75907C20.0122 7.3378 20.3609 6.16331 20.6016 5.17798L19.1444 4.82204C18.9143 5.76385 18.5779 6.89852 18.1526 8.33247L19.5906 8.75907ZM3.84743 8.33246C3.42205 6.89852 3.08566 5.76385 2.8556 4.82204L1.39845 5.17798C1.63913 6.1633 1.98776 7.33781 2.40938 8.75907L3.84743 8.33246ZM12.25 9.00001V13H13.75V9.00001H12.25ZM8.25 9.00001V13H9.75V9.00001H8.25ZM13.4697 1.53033L17.4697 5.53034L18.5304 4.46968L14.5304 0.46967L13.4697 1.53033ZM18 5.75001H20V4.25001H18V5.75001ZM20 5.75001H21V4.25001H20V5.75001ZM19.873 5.75001H20V4.25001H19.873V5.75001ZM1 5.75001H4.24265V4.25001H1V5.75001ZM4.24265 5.75001H18V4.25001H4.24265V5.75001ZM7.71231 0.469685L3.71232 4.46968L4.77298 5.53034L8.77297 1.53035L7.71231 0.469685ZM2.12703 5.75001H4.24265V4.25001H2.12703V5.75001Z" fill="#9766FF"/>
</svg>
