<svg width="430" height="606" viewBox="0 0 430 606" fill="none" xmlns="http://www.w3.org/2000/svg">
<g filter="url(#filter0_f_480_472)">
<circle cx="211.5" cy="395" r="191" fill="url(#paint0_linear_480_472)" fill-opacity="0.3"/>
</g>
<g filter="url(#filter1_f_480_472)">
<path d="M367.5 120L378.844 150.656L409.5 162L378.844 173.344L367.5 204L356.156 173.344L325.5 162L356.156 150.656L367.5 120Z" fill="url(#paint1_linear_480_472)" fill-opacity="0.3"/>
</g>
<g filter="url(#filter2_f_480_472)">
<path d="M183 20L193.089 44.675L209.414 65.75L183 62.15L156.586 65.75L172.911 44.675L183 20Z" fill="url(#paint2_linear_480_472)" fill-opacity="0.3"/>
</g>
<defs>
<filter id="filter0_f_480_472" x="0.5" y="184" width="422" height="422" filterUnits="userSpaceOnUse" color-interpolation-filters="sRGB">
<feFlood flood-opacity="0" result="BackgroundImageFix"/>
<feBlend mode="normal" in="SourceGraphic" in2="BackgroundImageFix" result="shape"/>
<feGaussianBlur stdDeviation="10" result="effect1_foregroundBlur_480_472"/>
</filter>
<filter id="filter1_f_480_472" x="305.5" y="100" width="124" height="124" filterUnits="userSpaceOnUse" color-interpolation-filters="sRGB">
<feFlood flood-opacity="0" result="BackgroundImageFix"/>
<feBlend mode="normal" in="SourceGraphic" in2="BackgroundImageFix" result="shape"/>
<feGaussianBlur stdDeviation="10" result="effect1_foregroundBlur_480_472"/>
</filter>
<filter id="filter2_f_480_472" x="136.586" y="0" width="92.8281" height="85.75" filterUnits="userSpaceOnUse" color-interpolation-filters="sRGB">
<feFlood flood-opacity="0" result="BackgroundImageFix"/>
<feBlend mode="normal" in="SourceGraphic" in2="BackgroundImageFix" result="shape"/>
<feGaussianBlur stdDeviation="10" result="effect1_foregroundBlur_480_472"/>
</filter>
<linearGradient id="paint0_linear_480_472" x1="211.5" y1="204" x2="503.954" y2="312.474" gradientUnits="userSpaceOnUse">
<stop stop-color="#C1A3FF"/>
<stop offset="1" stop-color="#AC8BF2"/>
</linearGradient>
<linearGradient id="paint1_linear_480_472" x1="367.5" y1="120" x2="431.809" y2="143.853" gradientUnits="userSpaceOnUse">
<stop stop-color="#C1A3FF"/>
<stop offset="1" stop-color="#AC8BF2"/>
</linearGradient>
<linearGradient id="paint2_linear_480_472" x1="183" y1="20" x2="229.701" y2="37.3218" gradientUnits="userSpaceOnUse">
<stop stop-color="#C1A3FF"/>
<stop offset="1" stop-color="#AC8BF2"/>
</linearGradient>
</defs>
</svg>
