<svg width="62" height="50" viewBox="0 0 62 50" fill="none" xmlns="http://www.w3.org/2000/svg">
<path d="M43.6315 30.0808C44.7436 26.9331 53.0384 3.83495 58.2166 0.23939C58.7913 -0.159604 59.5348 -0.0186269 60.1235 0.35988C60.9681 0.902954 61.6795 1.48445 61.9387 2.25054C62.3166 3.36761 60.8649 4.06584 59.87 4.71621C55.744 7.4135 50.9173 19.3039 45.46 34.3436C45.3831 34.5555 45.1788 34.699 44.9507 34.699H5.38405C3.01247 34.699 3.10369 40.3833 5.38405 40.2945H11.8992C12.1974 40.2945 12.4392 40.5331 12.4392 40.8274V42.959C12.4392 43.1552 12.278 43.3142 12.0792 43.3142H3.38706C-1.08247 43.3142 -1.35609 30.4358 3.93435 30.4358H43.1211C43.3518 30.4358 43.5556 30.2958 43.6315 30.0808Z" fill="#9766FF"/>
<path d="M18.3597 43.9038C18.3597 47.2706 15.594 50 12.1824 50C9.62011 50 7.4222 48.4605 6.48662 46.2676H12.4346C13.6182 46.2676 14.5777 45.3207 14.5777 44.1526C14.5777 42.9845 13.6182 42.0376 12.4346 42.0376H6.29988C7.09861 39.5836 9.43033 37.8076 12.1824 37.8076C15.594 37.8076 18.3597 40.537 18.3597 43.9038Z" fill="#9766FF"/>
<path d="M43.9192 43.9038C43.9192 47.2706 41.1535 50 37.7419 50C35.1796 50 32.9817 48.4605 32.0461 46.2676H37.9941C39.1778 46.2676 40.1373 45.3207 40.1373 44.1526C40.1373 42.9845 39.1778 42.0376 37.9941 42.0376H31.8594C32.6581 39.5836 34.9898 37.8076 37.7419 37.8076C41.1535 37.8076 43.9192 40.537 43.9192 43.9038Z" fill="#9766FF"/>
<path d="M21.521 43.3142C21.5216 43.2847 21.5219 43.2551 21.5219 43.2254C21.5219 42.1046 21.0745 41.0827 20.3396 40.3113V40.2945H37.9792C38.1781 40.2945 38.3392 40.4535 38.3392 40.6497V42.959C38.3392 43.1552 38.1781 43.3142 37.9792 43.3142H21.521Z" fill="#9766FF"/>
<path d="M23.8458 17.4066H26.7257V27.1835H23.8458V17.4066ZM27.3305 25.0093H27.4457C27.9161 25.0093 28.2473 24.9903 28.4393 24.9524C28.6409 24.905 28.7897 24.8008 28.8857 24.6398C28.9913 24.4693 29.0489 24.1993 29.0585 23.8298C29.0777 23.3561 29.0873 22.8445 29.0873 22.295C29.0873 21.755 29.0777 21.2387 29.0585 20.7461C29.0393 20.3766 28.9769 20.1066 28.8713 19.9361C28.7753 19.7655 28.6169 19.6613 28.3961 19.6234C28.1753 19.595 27.8585 19.5808 27.4457 19.5808H27.3305V17.4066H27.4457C28.2137 17.4066 28.8521 17.4397 29.3609 17.506C29.8792 17.5724 30.3064 17.6766 30.6424 17.8187C30.9688 17.9608 31.228 18.155 31.42 18.4013C31.612 18.6476 31.7512 18.9555 31.8376 19.325C31.9144 19.6566 31.9624 20.0497 31.9816 20.5045C32.0104 20.9498 32.0248 21.5466 32.0248 22.295C32.0248 23.0529 32.0104 23.6545 31.9816 24.0998C31.9624 24.545 31.9144 24.9335 31.8376 25.2651C31.7512 25.6345 31.612 25.9424 31.42 26.1887C31.228 26.4351 30.9688 26.6293 30.6424 26.7714C30.3064 26.9135 29.8792 27.0177 29.3609 27.084C28.8521 27.1503 28.2137 27.1835 27.4457 27.1835H27.3305V25.0093Z" fill="#9766FF"/>
<path d="M33.4315 17.4066H41.0201V19.4245L40.9049 19.5808H33.4315V17.4066ZM33.2731 25.0945L36.9882 20.1492H40.4729L35.1738 27.1835H33.2731V25.0945ZM37.5642 25.0093H41.0201V27.1835H35.9226L37.5642 25.0093Z" fill="#9766FF"/>
<path d="M3.37865 4.61213L5.8986 4.61193L5.89932 13.1667L3.37937 13.1669L3.37865 4.61213ZM6.42813 8.6033L6.73052 8.60327C6.99931 8.60325 7.19671 8.59494 7.32271 8.57835C7.4571 8.55348 7.5621 8.50373 7.63769 8.42912C7.71328 8.36279 7.75947 8.26746 7.77626 8.14312C7.80145 8.01048 7.81403 7.81568 7.81401 7.5587C7.81399 7.30173 7.80137 7.11107 7.77616 6.98673C7.75935 6.85409 7.71315 6.75048 7.63754 6.67588C7.56194 6.60957 7.45694 6.56813 7.32254 6.55156C7.18814 6.5267 6.99074 6.51429 6.73035 6.51431L6.42795 6.51433L6.42779 4.61188L7.47357 4.6118C8.09516 4.61175 8.59916 4.67388 8.98556 4.79819C9.38036 4.91421 9.67857 5.09656 9.88019 5.34523C10.0734 5.57732 10.2036 5.87159 10.2709 6.22803C10.3381 6.57619 10.3717 7.01967 10.3718 7.55849C10.3718 8.07244 10.3382 8.49936 10.2711 8.83924C10.2123 9.17911 10.0905 9.46511 9.90575 9.69723C9.69578 9.96251 9.3934 10.1656 8.99862 10.3066C8.61224 10.4393 8.10405 10.5056 7.47406 10.5057L6.42829 10.5057L6.42813 8.6033Z" fill="#9766FF"/>
<path d="M11.4996 4.61147L14.0195 4.61126L14.0203 13.1661L11.5003 13.1663L11.4996 4.61147ZM15.0532 10.2564L14.5492 10.2564L14.549 8.35395L14.9774 8.35391C15.2378 8.35389 15.4352 8.34559 15.5696 8.329C15.704 8.30412 15.809 8.26266 15.8846 8.20463C15.9518 8.1466 15.998 8.05955 16.0232 7.9435C16.0484 7.82744 16.061 7.65751 16.0609 7.43369C16.0609 7.20987 16.0483 7.03994 16.0231 6.92388C15.9979 6.79954 15.9517 6.70836 15.8845 6.65034C15.8173 6.59232 15.7165 6.55502 15.5821 6.53846C15.4561 6.52189 15.2545 6.51361 14.9773 6.51364L14.5489 6.51367L14.5487 4.61122L15.8465 4.61112C16.4429 4.61107 16.9259 4.66906 17.2955 4.78508C17.6651 4.9011 17.9507 5.0793 18.1523 5.31968C18.3371 5.54349 18.459 5.82118 18.5178 6.15275C18.585 6.48433 18.6186 6.91124 18.6187 7.43348C18.6187 8.10493 18.5558 8.62303 18.4298 8.98778C18.2535 9.45201 17.9427 9.77947 17.4975 9.97017L18.8082 13.1657L16.1622 13.1659L15.0532 10.2564Z" fill="#9766FF"/>
<path d="M24.8031 8.88779C24.8031 8.1666 24.7988 7.6941 24.7904 7.47028C24.7736 7.13041 24.7274 6.88587 24.6517 6.73667C24.5761 6.57917 24.4543 6.48385 24.2863 6.45071C24.1183 6.42585 23.8789 6.41344 23.5681 6.41346C23.2069 6.41349 22.9718 6.43009 22.8626 6.46326L22.8624 4.5235C22.938 4.51521 23.0514 4.51106 23.2026 4.51104L23.568 4.51101C24.5088 4.51094 25.2353 4.58548 25.7478 4.73465C26.2686 4.87553 26.6466 5.11175 26.8818 5.44332C27.1002 5.75001 27.2346 6.15204 27.2851 6.64941C27.3439 7.14678 27.3734 7.89284 27.3735 8.88758C27.3735 9.75798 27.3526 10.4294 27.3106 10.9019C27.2771 11.3662 27.1847 11.7516 27.0335 12.0584C26.8656 12.4065 26.6052 12.6718 26.2524 12.8542C25.908 13.0366 25.4251 13.1569 24.8035 13.2149L24.8031 8.88779ZM23.5687 13.2648C22.3423 13.2649 21.4603 13.1323 20.9227 12.8671C20.6455 12.7345 20.4271 12.5563 20.2675 12.3325C20.1079 12.1087 19.9903 11.831 19.9146 11.4994C19.8474 11.2093 19.8054 10.8777 19.7886 10.5047C19.7717 10.1233 19.7633 9.58452 19.7632 8.8882C19.7631 8.0178 19.7799 7.35049 19.8134 6.88627C19.8554 6.42205 19.952 6.03244 20.1031 5.71742C20.2711 5.37754 20.5273 5.1164 20.8717 4.934C21.216 4.7516 21.7032 4.62722 22.3332 4.56085L22.3336 8.88799C22.3336 9.37707 22.342 9.84543 22.3589 10.2931C22.3757 10.6329 22.4177 10.8816 22.4849 11.0391C22.5606 11.1966 22.6824 11.2878 22.8504 11.3126C22.9932 11.3458 23.2326 11.3623 23.5686 11.3623C23.9129 11.3623 24.1481 11.3498 24.2741 11.325L24.2743 13.2523C24.1987 13.2606 24.0853 13.2647 23.9341 13.2647L23.5687 13.2648Z" fill="#9766FF"/>
<path d="M28.7874 4.98309L28.7873 4.61006L31.1057 4.60987L34.7351 12.2194L34.3193 13.1644L32.6814 13.1646L28.7874 4.98309ZM35.9066 9.57077L35.8562 9.57078L35.0122 11.5852L33.9284 9.29738L35.9062 4.60948L38.3001 4.60929L38.3009 13.1641L35.9069 13.1643L35.9066 9.57077ZM28.7875 6.21409L31.1062 11.0882L31.1064 13.1647L28.788 13.1649L28.7875 6.21409Z" fill="#9766FF"/>
<path d="M44.7486 8.88617C44.7486 8.16498 44.7443 7.69247 44.7359 7.46866C44.7191 7.12879 44.6729 6.88425 44.5972 6.73504C44.5216 6.57755 44.3998 6.48223 44.2318 6.44908C44.0638 6.42423 43.8244 6.41182 43.5136 6.41184C43.1525 6.41187 42.9173 6.42847 42.8081 6.46164L42.8079 4.52188C42.8835 4.51359 42.9969 4.50943 43.1481 4.50942L43.5135 4.50939C44.4543 4.50931 45.1809 4.58386 45.6933 4.73303C46.2141 4.87391 46.5921 5.11013 46.8273 5.44169C47.0457 5.74839 47.1801 6.15042 47.2306 6.64779C47.2894 7.14516 47.3189 7.89121 47.319 8.88596C47.319 9.75636 47.2981 10.4278 47.2561 10.9003C47.2226 11.3645 47.1302 11.75 46.979 12.0567C46.8111 12.4049 46.5507 12.6702 46.1979 12.8526C45.8535 13.035 45.3706 13.1552 44.749 13.2133L44.7486 8.88617ZM43.5142 13.2631C42.2878 13.2632 41.4058 13.1307 40.8682 12.8655C40.591 12.7329 40.3726 12.5546 40.213 12.3308C40.0534 12.107 39.9358 11.8293 39.8601 11.4978C39.7929 11.2076 39.7509 10.8761 39.7341 10.503C39.7172 10.1217 39.7088 9.5829 39.7087 8.88658C39.7087 8.01618 39.7254 7.34887 39.759 6.88465C39.8009 6.42043 39.8975 6.03082 40.0487 5.7158C40.2166 5.37592 40.4728 5.11477 40.8172 4.93238C41.1616 4.74998 41.6487 4.6256 42.2787 4.55923L42.2791 8.88637C42.2791 9.37545 42.2876 9.84381 42.3044 10.2914C42.3212 10.6313 42.3632 10.88 42.4305 11.0375C42.5061 11.195 42.6279 11.2862 42.7959 11.311C42.9387 11.3442 43.1781 11.3607 43.5141 11.3607C43.8585 11.3607 44.0936 11.3482 44.2196 11.3233L44.2198 13.2507C44.1442 13.2589 44.0308 13.2631 43.8796 13.2631L43.5142 13.2631Z" fill="#9766FF"/>
<path d="M3.21205 17.3898H3.68004V18.9785H3.21205V17.3898ZM3.77832 18.6067H4.27907V18.9785H3.77832V18.6067Z" fill="#9766FF"/>
<path d="M5.13301 18.2742H5.2968C5.2968 18.188 5.28822 18.1326 5.27106 18.1079C5.2617 18.0941 5.24922 18.0856 5.23362 18.0825C5.21803 18.0779 5.19541 18.0756 5.16577 18.0756H5.13301V17.7823H5.16577C5.29992 17.7823 5.40288 17.7931 5.47464 17.8147C5.54796 17.8362 5.60178 17.8716 5.6361 17.9209C5.6673 17.964 5.68602 18.0194 5.69226 18.0871C5.70006 18.1549 5.70396 18.2565 5.70396 18.392V18.4843H5.13301V18.2742ZM5.21257 18.997C5.06905 18.997 4.95595 18.9854 4.87327 18.9623C4.79215 18.9377 4.73132 18.8992 4.69076 18.8469C4.65488 18.8007 4.63148 18.7437 4.62056 18.676C4.60964 18.6067 4.60418 18.512 4.60418 18.392C4.60418 18.2811 4.60808 18.1934 4.61588 18.1287C4.62368 18.0625 4.64006 18.0063 4.66502 17.9601C4.6931 17.9093 4.73599 17.8701 4.79371 17.8424C4.85299 17.8131 4.93333 17.7946 5.03473 17.7869V18.4843C5.03473 18.5367 5.03707 18.5744 5.04175 18.5975C5.04643 18.619 5.05735 18.6352 5.07451 18.646C5.09323 18.6583 5.12209 18.6652 5.16109 18.6668C5.21101 18.6698 5.26404 18.6714 5.3202 18.6714C5.42004 18.6714 5.49258 18.6691 5.53782 18.6645L5.65716 18.6552V18.9531C5.59476 18.9716 5.50896 18.9839 5.39976 18.9901C5.34672 18.9947 5.28432 18.997 5.21257 18.997Z" fill="#9766FF"/>
<path d="M7.00629 18.1218C6.97665 18.1202 6.93609 18.1164 6.88461 18.1102C6.78789 18.101 6.70989 18.0964 6.65062 18.0964H6.5734V17.7823C6.68416 17.7823 6.78945 17.79 6.88929 17.8054L7.00629 17.8262V18.1218ZM6.667 18.6206C6.667 18.5975 6.6631 18.5829 6.6553 18.5767C6.6475 18.5705 6.63112 18.5659 6.60616 18.5628L6.35344 18.5282C6.29104 18.519 6.24034 18.5043 6.20134 18.4843C6.16391 18.4643 6.13583 18.4374 6.11711 18.4035C6.09839 18.3743 6.08591 18.3389 6.07967 18.2973C6.07343 18.2557 6.07031 18.2041 6.07031 18.1426C6.07031 18.0163 6.10853 17.924 6.18497 17.8655C6.24892 17.8193 6.34564 17.7923 6.47512 17.7846V18.1472C6.47512 18.1703 6.47824 18.1857 6.48448 18.1934C6.49072 18.1995 6.51022 18.2049 6.54298 18.2095L6.82377 18.2465C6.86433 18.2511 6.89943 18.2596 6.92907 18.2719C6.95871 18.2827 6.98367 18.2996 7.00395 18.3227C7.04919 18.3719 7.07181 18.4666 7.07181 18.6067C7.07181 18.7545 7.03359 18.8577 6.95715 18.9162C6.89007 18.9654 6.79335 18.9916 6.667 18.9947V18.6206ZM6.56872 18.997C6.44392 18.9954 6.33472 18.9877 6.24112 18.9739L6.10775 18.9531V18.6575C6.17015 18.6637 6.25438 18.6698 6.36046 18.676C6.41974 18.6791 6.46186 18.6806 6.48682 18.6806H6.56872V18.997Z" fill="#9766FF"/>
<path d="M9.82815 17.459V17.3898H10.2587L10.9326 18.803L10.8554 18.9785H10.5512L9.82815 17.459ZM11.1502 18.3111H11.1409L10.9841 18.6852L10.7829 18.2603L11.1502 17.3898H11.5948V18.9785H11.1502V18.3111ZM9.82815 17.6876L10.2587 18.5929V18.9785H9.82815V17.6876Z" fill="#9766FF"/>
<path d="M12.5535 18.2742H12.7173C12.7173 18.188 12.7087 18.1326 12.6915 18.1079C12.6822 18.0941 12.6697 18.0856 12.6541 18.0825C12.6385 18.0779 12.6159 18.0756 12.5862 18.0756H12.5535V17.7823H12.5862C12.7204 17.7823 12.8233 17.7931 12.8951 17.8147C12.9684 17.8362 13.0222 17.8716 13.0566 17.9209C13.0878 17.964 13.1065 18.0194 13.1127 18.0871C13.1205 18.1549 13.1244 18.2565 13.1244 18.392V18.4843H12.5535V18.2742ZM12.633 18.997C12.4895 18.997 12.3764 18.9854 12.2937 18.9623C12.2126 18.9377 12.1518 18.8992 12.1112 18.8469C12.0753 18.8007 12.0519 18.7437 12.041 18.676C12.0301 18.6067 12.0246 18.512 12.0246 18.392C12.0246 18.2811 12.0285 18.1934 12.0363 18.1287C12.0441 18.0625 12.0605 18.0063 12.0855 17.9601C12.1136 17.9093 12.1565 17.8701 12.2142 17.8424C12.2735 17.8131 12.3538 17.7946 12.4552 17.7869V18.4843C12.4552 18.5367 12.4575 18.5744 12.4622 18.5975C12.4669 18.619 12.4778 18.6352 12.495 18.646C12.5137 18.6583 12.5425 18.6652 12.5815 18.6668C12.6315 18.6698 12.6845 18.6714 12.7407 18.6714C12.8405 18.6714 12.913 18.6691 12.9583 18.6644L13.0776 18.6552V18.9531C13.0152 18.9716 12.9294 18.9839 12.8202 18.9901C12.7672 18.9947 12.7048 18.997 12.633 18.997Z" fill="#9766FF"/>
<path d="M13.5422 17.2627H13.9751V17.5953H13.5422V17.2627ZM13.5422 17.8008H13.9751V18.9785H13.5422V17.8008Z" fill="#9766FF"/>
<path d="M14.4215 17.2627H14.8544V18.9785H14.4215V17.2627Z" fill="#9766FF"/>
<path d="M15.3007 17.2627H15.7336V18.9785H15.3007V17.2627Z" fill="#9766FF"/>
<path d="M16.6737 18.2742H16.8375C16.8375 18.188 16.8289 18.1326 16.8118 18.1079C16.8024 18.0941 16.7899 18.0856 16.7743 18.0825C16.7587 18.0779 16.7361 18.0756 16.7065 18.0756H16.6737V17.7823H16.7065C16.8406 17.7823 16.9436 17.7931 17.0153 17.8147C17.0887 17.8362 17.1425 17.8716 17.1768 17.9209C17.208 17.964 17.2267 18.0194 17.2329 18.0871C17.2407 18.1549 17.2446 18.2565 17.2446 18.392V18.4843H16.6737V18.2742ZM16.7533 18.997C16.6097 18.997 16.4966 18.9854 16.414 18.9623C16.3328 18.9377 16.272 18.8992 16.2314 18.8469C16.1956 18.8007 16.1722 18.7437 16.1612 18.676C16.1503 18.6067 16.1449 18.512 16.1449 18.392C16.1449 18.2811 16.1488 18.1934 16.1566 18.1287C16.1644 18.0625 16.1807 18.0063 16.2057 17.9601C16.2338 17.9093 16.2767 17.8701 16.3344 17.8424C16.3937 17.8131 16.474 17.7946 16.5754 17.7869V18.4843C16.5754 18.5367 16.5778 18.5744 16.5824 18.5975C16.5871 18.619 16.598 18.6352 16.6152 18.646C16.6339 18.6583 16.6628 18.6652 16.7018 18.6668C16.7517 18.6698 16.8047 18.6714 16.8609 18.6714C16.9607 18.6714 17.0333 18.6691 17.0785 18.6644L17.1978 18.6552V18.9531C17.1355 18.9716 17.0497 18.9839 16.9405 18.9901C16.8874 18.9947 16.825 18.997 16.7533 18.997Z" fill="#9766FF"/>
<path d="M17.9971 18.9947C17.8567 18.9947 17.7623 18.9523 17.714 18.8677C17.6921 18.8307 17.6773 18.7861 17.6695 18.7337C17.6617 18.6798 17.6578 18.6144 17.6578 18.5374V17.8008H18.0907V18.3573C18.0907 18.4389 18.0915 18.4928 18.093 18.519C18.0962 18.5575 18.1008 18.5852 18.1071 18.6021C18.1133 18.619 18.1235 18.6298 18.1375 18.6344C18.1515 18.6375 18.1765 18.639 18.2124 18.639H18.2358V18.9277C18.1749 18.9723 18.0954 18.9947 17.9971 18.9947ZM18.334 17.8008H18.7669V18.9785H18.334V17.8008Z" fill="#9766FF"/>
<path d="M19.7447 17.8678C19.7775 17.837 19.8157 17.8154 19.8594 17.8031C19.9046 17.7893 19.96 17.7823 20.0255 17.7823V18.168C19.9553 18.168 19.8976 18.1726 19.8524 18.1818C19.8087 18.1911 19.7728 18.2072 19.7447 18.2303V17.8678ZM19.2135 17.8008H19.6464V18.9785H19.2135V17.8008Z" fill="#9766FF"/>
<path d="M21.2721 18.1218C21.2424 18.1202 21.2019 18.1164 21.1504 18.1102C21.0537 18.101 20.9757 18.0964 20.9164 18.0964H20.8392V17.7823C20.9499 17.7823 21.0552 17.79 21.1551 17.8054L21.2721 17.8262V18.1218ZM20.9328 18.6206C20.9328 18.5975 20.9289 18.5829 20.9211 18.5767C20.9133 18.5705 20.8969 18.5659 20.8719 18.5628L20.6192 18.5282C20.5568 18.519 20.5061 18.5043 20.4671 18.4843C20.4297 18.4643 20.4016 18.4374 20.3829 18.4035C20.3642 18.3743 20.3517 18.3389 20.3454 18.2973C20.3392 18.2557 20.3361 18.2041 20.3361 18.1426C20.3361 18.0163 20.3743 17.924 20.4507 17.8655C20.5147 17.8193 20.6114 17.7923 20.7409 17.7846V18.1472C20.7409 18.1703 20.744 18.1857 20.7503 18.1934C20.7565 18.1995 20.776 18.2049 20.8088 18.2095L21.0895 18.2465C21.1301 18.2511 21.1652 18.2596 21.1948 18.2719C21.2245 18.2827 21.2494 18.2996 21.2697 18.3227C21.315 18.3719 21.3376 18.4666 21.3376 18.6067C21.3376 18.7545 21.2994 18.8577 21.2229 18.9162C21.1558 18.9654 21.0591 18.9916 20.9328 18.9947V18.6206ZM20.8345 18.997C20.7097 18.9954 20.6005 18.9877 20.5069 18.9739L20.3735 18.9531V18.6575C20.4359 18.6637 20.5202 18.6698 20.6262 18.676C20.6855 18.6791 20.7276 18.6806 20.7526 18.6806H20.8345V18.997Z" fill="#9766FF"/>
<path d="M3.21205 21.4753H3.68004V23.0641H3.21205V21.4753ZM3.77832 22.2166H3.83448C3.8844 22.2166 3.92105 22.215 3.94445 22.212C3.96941 22.2073 3.98891 22.1981 4.00295 22.1842C4.01699 22.1719 4.02557 22.1542 4.02869 22.1311C4.03337 22.1065 4.03571 22.0703 4.03571 22.0226C4.03571 21.9749 4.03337 21.9395 4.02869 21.9164C4.02557 21.8917 4.01699 21.8725 4.00295 21.8586C3.98891 21.8463 3.96941 21.8386 3.94445 21.8356C3.91949 21.8309 3.88284 21.8286 3.83448 21.8286H3.77832V21.4753H3.97253C4.08797 21.4753 4.18157 21.4869 4.25333 21.51C4.32665 21.5315 4.38203 21.5654 4.41946 21.6116C4.45534 21.6547 4.47952 21.7093 4.492 21.7755C4.50448 21.8402 4.51072 21.9225 4.51072 22.0226C4.51072 22.118 4.50448 22.1973 4.492 22.2605C4.48108 22.3236 4.45846 22.3767 4.42414 22.4198C4.38515 22.4691 4.32899 22.5068 4.25567 22.5329C4.18391 22.5576 4.08953 22.5699 3.97253 22.5699H3.77832V22.2166Z" fill="#9766FF"/>
<path d="M5.41267 21.9533C5.44543 21.9225 5.48365 21.901 5.52733 21.8887C5.57256 21.8748 5.62794 21.8679 5.69346 21.8679V22.2535C5.62326 22.2535 5.56555 22.2581 5.52031 22.2674C5.47663 22.2766 5.44075 22.2928 5.41267 22.3159V21.9533ZM4.8815 21.8864H5.31439V23.0641H4.8815V21.8864Z" fill="#9766FF"/>
<path d="M6.05552 21.3483H6.48841V21.6808H6.05552V21.3483ZM6.05552 21.8864H6.48841V23.0641H6.05552L6.05552 21.8864Z" fill="#9766FF"/>
<path d="M6.8318 21.8864H7.30447L8.10942 23.0641H7.63674L6.8318 21.8864ZM7.55017 22.0711L7.64844 21.8864H8.09304L7.77246 22.3967L7.55017 22.0711ZM7.15237 22.5306L7.37467 22.8562L7.26235 23.0641H6.81776L7.15237 22.5306Z" fill="#9766FF"/>
<path d="M10.0258 23.0802C9.96959 23.0802 9.92357 23.0756 9.88769 23.0664C9.85181 23.0587 9.81827 23.0425 9.78708 23.0179V22.7246H9.81281C9.84713 22.7246 9.87131 22.7231 9.88535 22.72C9.90095 22.7154 9.91265 22.7061 9.92045 22.6923C9.92825 22.6753 9.93293 22.6507 9.93449 22.6184C9.93605 22.5953 9.93683 22.5476 9.93683 22.4752C9.93683 22.4029 9.93605 22.3551 9.93449 22.332C9.93293 22.2982 9.92825 22.2735 9.92045 22.2581C9.91421 22.2427 9.90251 22.2335 9.88535 22.2304C9.86351 22.2274 9.83933 22.2258 9.81281 22.2258H9.78708V21.9325C9.81827 21.9095 9.85259 21.8933 9.89003 21.884C9.92903 21.8748 9.97427 21.8702 10.0258 21.8702C10.0881 21.8702 10.1412 21.8802 10.1849 21.9002C10.2301 21.9202 10.2668 21.9526 10.2948 21.9972C10.3494 22.0865 10.3767 22.2443 10.3767 22.4706C10.3767 22.6954 10.3494 22.8539 10.2948 22.9463C10.2402 23.0356 10.1505 23.0802 10.0258 23.0802ZM9.25591 21.8864H9.6888V23.5236H9.25591V21.8864Z" fill="#9766FF"/>
<path d="M11.4556 22.4775C11.4556 22.399 11.4548 22.3467 11.4532 22.3205C11.4517 22.2835 11.447 22.2558 11.4392 22.2374C11.4314 22.2173 11.4189 22.205 11.4018 22.2004C11.383 22.1958 11.3573 22.1935 11.3245 22.1935H11.2918V21.8679H11.3245C11.4603 21.8679 11.5663 21.8787 11.6428 21.9002C11.7192 21.9202 11.7761 21.9541 11.8136 22.0018C11.8479 22.0449 11.8697 22.1027 11.8791 22.175C11.89 22.2458 11.8955 22.3467 11.8955 22.4775C11.8955 22.5991 11.8916 22.6938 11.8838 22.7616C11.8775 22.8278 11.8612 22.8824 11.8346 22.9255C11.805 22.9732 11.7605 23.0094 11.7013 23.034C11.642 23.0571 11.5601 23.0718 11.4556 23.0779V22.4775ZM11.3245 23.0825C11.1888 23.0825 11.0827 23.0725 11.0063 23.0525C10.9299 23.0325 10.8729 22.9986 10.8355 22.9509C10.8012 22.9078 10.7785 22.8508 10.7676 22.78C10.7583 22.7092 10.7536 22.6084 10.7536 22.4775C10.7536 22.3574 10.7575 22.2635 10.7653 22.1958C10.7731 22.1281 10.7902 22.0719 10.8168 22.0272C10.8448 21.978 10.8885 21.9418 10.9478 21.9187C11.0071 21.8941 11.089 21.8787 11.1935 21.8725V22.4775C11.1935 22.556 11.1943 22.6076 11.1958 22.6322C11.1974 22.6692 11.2021 22.6969 11.2099 22.7154C11.2177 22.7338 11.2309 22.7454 11.2497 22.75C11.2653 22.7546 11.2902 22.7569 11.3245 22.7569H11.3573V23.0825H11.3245Z" fill="#9766FF"/>
<path d="M12.6424 23.0802C12.502 23.0802 12.4076 23.0379 12.3592 22.9532C12.3374 22.9163 12.3226 22.8716 12.3148 22.8193C12.307 22.7654 12.3031 22.7 12.3031 22.623L12.3031 21.8864H12.736V22.4429C12.736 22.5245 12.7368 22.5784 12.7383 22.6045C12.7414 22.643 12.7461 22.6707 12.7524 22.6877C12.7586 22.7046 12.7687 22.7154 12.7828 22.72C12.7968 22.7231 12.8218 22.7246 12.8576 22.7246H12.881V23.0133C12.8202 23.0579 12.7407 23.0802 12.6424 23.0802ZM12.9793 21.8864H13.4122V23.0641H12.9793V21.8864Z" fill="#9766FF"/>
<path d="M14.39 21.9533C14.4228 21.9225 14.461 21.901 14.5047 21.8887C14.5499 21.8748 14.6053 21.8679 14.6708 21.8679V22.2535C14.6006 22.2535 14.5429 22.2581 14.4976 22.2674C14.454 22.2766 14.4181 22.2928 14.39 22.3159V21.9533ZM13.8588 21.8864H14.2917V23.0641H13.8588V21.8864Z" fill="#9766FF"/>
<path d="M15.7363 21.4753H17.0537V21.8448H15.7363V21.4753ZM16.1598 21.9372H16.6278V23.0641H16.1598V21.9372Z" fill="#9766FF"/>
<path d="M17.9843 22.4775C17.9843 22.399 17.9835 22.3467 17.982 22.3205C17.9804 22.2835 17.9757 22.2558 17.9679 22.2374C17.9601 22.2173 17.9477 22.205 17.9305 22.2004C17.9118 22.1958 17.886 22.1935 17.8533 22.1935H17.8205V21.8679H17.8533C17.989 21.8679 18.0951 21.8787 18.1715 21.9002C18.2479 21.9202 18.3049 21.9541 18.3423 22.0018C18.3766 22.0449 18.3985 22.1027 18.4078 22.175C18.4188 22.2458 18.4242 22.3467 18.4242 22.4775C18.4242 22.5991 18.4203 22.6938 18.4125 22.7616C18.4063 22.8278 18.3899 22.8824 18.3634 22.9255C18.3337 22.9732 18.2893 23.0094 18.23 23.034C18.1707 23.0571 18.0888 23.0718 17.9843 23.0779V22.4775ZM17.8533 23.0825C17.7176 23.0825 17.6115 23.0725 17.535 23.0525C17.4586 23.0325 17.4017 22.9986 17.3642 22.9509C17.3299 22.9078 17.3073 22.8508 17.2964 22.78C17.287 22.7092 17.2823 22.6084 17.2823 22.4775C17.2823 22.3574 17.2862 22.2635 17.294 22.1958C17.3018 22.1281 17.319 22.0719 17.3455 22.0272C17.3736 21.978 17.4173 21.9418 17.4765 21.9187C17.5358 21.8941 17.6177 21.8787 17.7222 21.8725V22.4775C17.7222 22.556 17.723 22.6076 17.7246 22.6322C17.7261 22.6692 17.7308 22.6969 17.7386 22.7154C17.7464 22.7338 17.7597 22.7454 17.7784 22.75C17.794 22.7546 17.819 22.7569 17.8533 22.7569H17.886V23.0825H17.8533Z" fill="#9766FF"/>
<path d="M19.1711 23.0802C19.0307 23.0802 18.9363 23.0379 18.888 22.9532C18.8661 22.9163 18.8513 22.8716 18.8435 22.8193C18.8357 22.7654 18.8318 22.7 18.8318 22.623V21.8864H19.2647V22.4429C19.2647 22.5245 19.2655 22.5784 19.2671 22.6045C19.2702 22.643 19.2748 22.6707 19.2811 22.6877C19.2873 22.7046 19.2975 22.7154 19.3115 22.72C19.3255 22.7231 19.3505 22.7246 19.3864 22.7246H19.4098V23.0133C19.3489 23.0579 19.2694 23.0802 19.1711 23.0802ZM19.5081 21.8864H19.941V23.0641H19.5081V21.8864Z" fill="#9766FF"/>
<path d="M21.2721 22.2073C21.2424 22.2058 21.2019 22.202 21.1504 22.1958C21.0537 22.1866 20.9757 22.1819 20.9164 22.1819H20.8392V21.8679C20.9499 21.8679 21.0552 21.8756 21.1551 21.891L21.2721 21.9118V22.2073ZM20.9328 22.7061C20.9328 22.683 20.9289 22.6684 20.9211 22.6623C20.9133 22.6561 20.8969 22.6515 20.8719 22.6484L20.6192 22.6138C20.5568 22.6045 20.5061 22.5899 20.4671 22.5699C20.4297 22.5499 20.4016 22.5229 20.3829 22.4891C20.3642 22.4598 20.3517 22.4244 20.3454 22.3828C20.3392 22.3413 20.3361 22.2897 20.3361 22.2281C20.3361 22.1019 20.3743 22.0095 20.4507 21.951C20.5147 21.9048 20.6114 21.8779 20.7409 21.8702V22.2327C20.7409 22.2558 20.744 22.2712 20.7503 22.2789C20.7565 22.2851 20.776 22.2905 20.8088 22.2951L21.0895 22.332C21.1301 22.3367 21.1652 22.3451 21.1948 22.3574C21.2245 22.3682 21.2494 22.3852 21.2697 22.4082C21.315 22.4575 21.3376 22.5522 21.3376 22.6923C21.3376 22.8401 21.2994 22.9432 21.2229 23.0017C21.1558 23.051 21.0591 23.0772 20.9328 23.0802V22.7061ZM20.8345 23.0825C20.7097 23.081 20.6005 23.0733 20.5069 23.0594L20.3735 23.0387V22.7431C20.4359 22.7492 20.5202 22.7554 20.6262 22.7616C20.6855 22.7646 20.7276 22.7662 20.7526 22.7662H20.8345V23.0825Z" fill="#9766FF"/>
<path d="M17.953 25.4339H18.3859V27.1496H17.953V25.4339Z" fill="#9766FF"/>
<path d="M19.326 26.4453H19.4898C19.4898 26.3591 19.4812 26.3037 19.4641 26.279C19.4547 26.2652 19.4422 26.2567 19.4266 26.2536C19.411 26.249 19.3884 26.2467 19.3588 26.2467H19.326V25.9534H19.3588C19.4929 25.9534 19.5959 25.9642 19.6676 25.9858C19.741 26.0073 19.7948 26.0427 19.8291 26.092C19.8603 26.1351 19.879 26.1905 19.8853 26.2583C19.8931 26.326 19.897 26.4276 19.897 26.5631V26.6554H19.326V26.4453ZM19.4056 27.1681C19.2621 27.1681 19.149 27.1565 19.0663 27.1335C18.9852 27.1088 18.9243 27.0703 18.8838 27.018C18.8479 26.9718 18.8245 26.9149 18.8136 26.8471C18.8026 26.7778 18.7972 26.6832 18.7972 26.5631C18.7972 26.4522 18.8011 26.3645 18.8089 26.2998C18.8167 26.2336 18.8331 26.1774 18.858 26.1313C18.8861 26.0805 18.929 26.0412 18.9867 26.0135C19.046 25.9842 19.1263 25.9658 19.2277 25.9581V26.6554C19.2277 26.7078 19.2301 26.7455 19.2348 26.7686C19.2394 26.7902 19.2504 26.8063 19.2675 26.8171C19.2862 26.8294 19.3151 26.8363 19.3541 26.8379C19.404 26.841 19.457 26.8425 19.5132 26.8425C19.613 26.8425 19.6856 26.8402 19.7308 26.8356L19.8502 26.8263V27.1242C19.7878 27.1427 19.702 27.155 19.5928 27.1612C19.5397 27.1658 19.4773 27.1681 19.4056 27.1681Z" fill="#9766FF"/>
<path d="M21.1993 26.2929C21.1697 26.2914 21.1291 26.2875 21.0776 26.2814C20.9809 26.2721 20.9029 26.2675 20.8436 26.2675H20.7664V25.9534C20.8772 25.9534 20.9825 25.9611 21.0823 25.9765L21.1993 25.9973V26.2929ZM20.86 26.7917C20.86 26.7686 20.8561 26.754 20.8483 26.7478C20.8405 26.7417 20.8241 26.737 20.7992 26.734L20.5464 26.6993C20.484 26.6901 20.4333 26.6755 20.3943 26.6554C20.3569 26.6354 20.3288 26.6085 20.3101 26.5746C20.2914 26.5454 20.2789 26.51 20.2727 26.4684C20.2664 26.4268 20.2633 26.3753 20.2633 26.3137C20.2633 26.1874 20.3015 26.0951 20.378 26.0366C20.4419 25.9904 20.5386 25.9634 20.6681 25.9558V26.3183C20.6681 26.3414 20.6712 26.3568 20.6775 26.3645C20.6837 26.3706 20.7032 26.376 20.736 26.3806L21.0168 26.4176C21.0573 26.4222 21.0924 26.4307 21.1221 26.443C21.1517 26.4538 21.1767 26.4707 21.197 26.4938C21.2422 26.5431 21.2648 26.6377 21.2648 26.7778C21.2648 26.9256 21.2266 27.0288 21.1502 27.0873C21.0831 27.1365 20.9864 27.1627 20.86 27.1658V26.7917ZM20.7617 27.1681C20.6369 27.1666 20.5277 27.1589 20.4341 27.145L20.3008 27.1242V26.8286C20.3631 26.8348 20.4474 26.841 20.5535 26.8471C20.6127 26.8502 20.6549 26.8517 20.6798 26.8517H20.7617V27.1681Z" fill="#9766FF"/>
</svg>
