<svg width="62" height="50" viewBox="0 0 62 50" fill="none" xmlns="http://www.w3.org/2000/svg">
<path d="M43.6315 30.0808C44.7436 26.9331 53.0384 3.83495 58.2166 0.23939C58.7913 -0.159604 59.5348 -0.0186269 60.1235 0.35988C60.9681 0.902954 61.6795 1.48445 61.9387 2.25054C62.3166 3.36761 60.8649 4.06584 59.87 4.71621C55.744 7.4135 50.9173 19.3039 45.46 34.3436C45.3831 34.5555 45.1788 34.699 44.9507 34.699H5.38405C3.01247 34.699 3.10369 40.3833 5.38405 40.2945H11.8992C12.1974 40.2945 12.4392 40.5331 12.4392 40.8274V42.959C12.4392 43.1552 12.278 43.3142 12.0792 43.3142H3.38706C-1.08247 43.3142 -1.35609 30.4358 3.93435 30.4358H43.1211C43.3518 30.4358 43.5556 30.2958 43.6315 30.0808Z" fill="#9766FF"/>
<path d="M18.3597 43.9038C18.3597 47.2706 15.594 50 12.1824 50C9.62011 50 7.4222 48.4605 6.48662 46.2676H12.4346C13.6182 46.2676 14.5777 45.3207 14.5777 44.1526C14.5777 42.9845 13.6182 42.0376 12.4346 42.0376H6.29988C7.09861 39.5836 9.43033 37.8076 12.1824 37.8076C15.594 37.8076 18.3597 40.537 18.3597 43.9038Z" fill="#9766FF"/>
<path d="M43.9192 43.9038C43.9192 47.2706 41.1535 50 37.7419 50C35.1796 50 32.9817 48.4605 32.0461 46.2676H37.9941C39.1778 46.2676 40.1373 45.3207 40.1373 44.1526C40.1373 42.9845 39.1778 42.0376 37.9941 42.0376H31.8594C32.6581 39.5836 34.9898 37.8076 37.7419 37.8076C41.1535 37.8076 43.9192 40.537 43.9192 43.9038Z" fill="#9766FF"/>
</svg>
